<svg width="38" height="38" viewBox="0 0 38 38" fill="none" xmlns="http://www.w3.org/2000/svg">
<g opacity="0.2">
<rect x="1" y="1" width="36" height="36" rx="12" stroke="#1565D8" stroke-width="0.75"/>
</g>
<path fill-rule="evenodd" clip-rule="evenodd" d="M19.663 20.6181C20.1854 19.483 19.7039 18.5478 18.3738 17.9686L16.1701 17.0587C15.4562 16.7639 14.6382 16.8854 14.0406 17.3749L12.014 19.0349L11.955 19.6259L11.8601 24.4599V25.2999H14.3121L19.3127 26.7208C19.9436 26.9 20.6219 26.7738 21.1462 26.3797C24.4412 23.9031 26.6427 22.2307 26.9761 21.9207C27.7844 21.1692 28.1026 20.3336 27.5267 19.51C27.0612 18.8442 26.2761 18.7732 25.3031 19.2137L20.5707 21.6205L19.24 21.1974C19.4116 21.0494 19.5531 20.8568 19.663 20.6181Z" fill="#1565D8" stroke="#333333" stroke-width="0.2"/>
<g opacity="0.3">
<path fill-rule="evenodd" clip-rule="evenodd" d="M24.2106 11.8609H23.2V11.6505C23.2 11.3023 22.918 11.02 22.57 11.02C22.222 11.02 21.94 11.3023 21.94 11.6505V11.8609H21.7417C20.9298 11.8609 20.2717 12.5198 20.2717 13.3323V13.7534C20.2717 14.566 20.9298 15.2248 21.7417 15.2248H23.41C23.5259 15.2248 23.62 15.319 23.62 15.4353V15.8551C23.62 15.9714 23.5259 16.0655 23.41 16.0655H21.4824C21.3891 15.8444 21.1736 15.6881 20.9209 15.6804C20.573 15.6698 20.2826 15.9434 20.272 16.2914L20.2603 16.6768C20.2495 17.0323 20.5345 17.3265 20.89 17.3265H21.94V17.5296C21.94 17.8777 22.222 18.16 22.57 18.16C22.918 18.16 23.2 17.8777 23.2 17.5296V17.3265H23.41C24.2219 17.3265 24.88 16.6677 24.88 15.8551V15.4353C24.88 14.6227 24.2219 13.9639 23.41 13.9639H21.7417C21.6258 13.9639 21.5317 13.8697 21.5317 13.7534V13.3323C21.5317 13.216 21.6258 13.1219 21.7417 13.1219H23.6631C23.7726 13.314 23.9789 13.4402 24.2106 13.4402C24.5586 13.4402 24.8406 13.1579 24.8406 12.8097V12.4914C24.8406 12.1433 24.5586 11.8609 24.2106 11.8609ZM11.4401 17.95H11.6501V25.93H11.4401C11.0921 25.93 10.8101 26.2121 10.8101 26.56C10.8101 26.908 11.0921 27.19 11.4401 27.19H12.2801C12.628 27.19 12.9101 26.908 12.9101 26.56V17.32C12.9101 16.9721 12.628 16.69 12.2801 16.69H11.4401C11.0921 16.69 10.8101 16.9721 10.8101 17.32C10.8101 17.668 11.0921 17.95 11.4401 17.95Z" fill="#1565D8"/>
<path d="M23.2 11.8609H23.1V11.9609H23.2V11.8609ZM21.94 11.8609V11.9609H22.04V11.8609H21.94ZM21.4824 16.0655L21.3903 16.1044L21.416 16.1655H21.4824V16.0655ZM20.9209 15.6804L20.9239 15.5804L20.9239 15.5804L20.9209 15.6804ZM20.272 16.2914L20.1721 16.2884L20.1721 16.2884L20.272 16.2914ZM20.2603 16.6768L20.3603 16.6799L20.3603 16.6799L20.2603 16.6768ZM21.94 17.3265H22.04V17.2265H21.94V17.3265ZM23.2 17.3265V17.2265H23.1V17.3265H23.2ZM23.6631 13.1219L23.75 13.0724L23.7212 13.0219H23.6631V13.1219ZM11.6501 17.95H11.7501V17.85H11.6501V17.95ZM11.6501 25.93V26.03H11.7501V25.93H11.6501ZM23.2 11.9609H24.2106V11.7609H23.2V11.9609ZM23.1 11.6505V11.8609H23.3V11.6505H23.1ZM22.57 11.12C22.8627 11.12 23.1 11.3575 23.1 11.6505H23.3C23.3 11.2472 22.9733 10.92 22.57 10.92V11.12ZM22.04 11.6505C22.04 11.3575 22.2773 11.12 22.57 11.12V10.92C22.1667 10.92 21.84 11.2472 21.84 11.6505H22.04ZM22.04 11.8609V11.6505H21.84V11.8609H22.04ZM21.7417 11.9609H21.94V11.7609H21.7417V11.9609ZM20.3717 13.3323C20.3717 12.5749 20.9851 11.9609 21.7417 11.9609V11.7609C20.8745 11.7609 20.1717 12.4646 20.1717 13.3323H20.3717ZM20.3717 13.7534V13.3323H20.1717V13.7534H20.3717ZM21.7417 15.1248C20.9851 15.1248 20.3717 14.5109 20.3717 13.7534H20.1717C20.1717 14.6211 20.8745 15.3248 21.7417 15.3248V15.1248ZM23.41 15.1248H21.7417V15.3248H23.41V15.1248ZM23.72 15.4353C23.72 15.2639 23.5813 15.1248 23.41 15.1248V15.3248C23.4705 15.3248 23.52 15.374 23.52 15.4353H23.72ZM23.72 15.8551V15.4353H23.52V15.8551H23.72ZM23.41 16.1655C23.5813 16.1655 23.72 16.0264 23.72 15.8551H23.52C23.52 15.9163 23.4705 15.9655 23.41 15.9655V16.1655ZM21.4824 16.1655H23.41V15.9655H21.4824V16.1655ZM20.9178 15.7803C21.1302 15.7868 21.3117 15.9182 21.3903 16.1044L21.5745 16.0267C21.4665 15.7706 21.2169 15.5893 20.9239 15.5804L20.9178 15.7803ZM20.372 16.2944C20.3809 16.0016 20.6253 15.7714 20.9178 15.7803L20.9239 15.5804C20.5208 15.5682 20.1843 15.8852 20.1721 16.2884L20.372 16.2944ZM20.3603 16.6799L20.372 16.2944L20.1721 16.2884L20.1604 16.6738L20.3603 16.6799ZM20.89 17.2265C20.591 17.2265 20.3512 16.9791 20.3603 16.6799L20.1604 16.6738C20.1478 17.0856 20.478 17.4265 20.89 17.4265V17.2265ZM21.94 17.2265H20.89V17.4265H21.94V17.2265ZM22.04 17.5296V17.3265H21.84V17.5296H22.04ZM22.57 18.06C22.2773 18.06 22.04 17.8226 22.04 17.5296H21.84C21.84 17.9329 22.1667 18.26 22.57 18.26V18.06ZM23.1 17.5296C23.1 17.8226 22.8627 18.06 22.57 18.06V18.26C22.9733 18.26 23.3 17.9329 23.3 17.5296H23.1ZM23.1 17.3265V17.5296H23.3V17.3265H23.1ZM23.41 17.2265H23.2V17.4265H23.41V17.2265ZM24.78 15.8551C24.78 16.6125 24.1666 17.2265 23.41 17.2265V17.4265C24.2772 17.4265 24.98 16.7228 24.98 15.8551H24.78ZM24.78 15.4353V15.8551H24.98V15.4353H24.78ZM23.41 14.0639C24.1666 14.0639 24.78 14.6778 24.78 15.4353H24.98C24.98 14.5676 24.2772 13.8639 23.41 13.8639V14.0639ZM21.7417 14.0639H23.41V13.8639H21.7417V14.0639ZM21.4317 13.7534C21.4317 13.9248 21.5704 14.0639 21.7417 14.0639V13.8639C21.6812 13.8639 21.6317 13.8146 21.6317 13.7534H21.4317ZM21.4317 13.3323V13.7534H21.6317V13.3323H21.4317ZM21.7417 13.0219C21.5704 13.0219 21.4317 13.161 21.4317 13.3323H21.6317C21.6317 13.2711 21.6812 13.2219 21.7417 13.2219V13.0219ZM23.6631 13.0219H21.7417V13.2219H23.6631V13.0219ZM24.2106 13.3402C24.0158 13.3402 23.8422 13.2342 23.75 13.0724L23.5762 13.1714C23.703 13.3939 23.942 13.5402 24.2106 13.5402V13.3402ZM24.7406 12.8097C24.7406 13.1027 24.5033 13.3402 24.2106 13.3402V13.5402C24.6139 13.5402 24.9406 13.213 24.9406 12.8097H24.7406ZM24.7406 12.4914V12.8097H24.9406V12.4914H24.7406ZM24.2106 11.9609C24.5033 11.9609 24.7406 12.1984 24.7406 12.4914H24.9406C24.9406 12.0881 24.6139 11.7609 24.2106 11.7609V11.9609ZM11.6501 17.85H11.4401V18.05H11.6501V17.85ZM11.7501 25.93V17.95H11.5501V25.93H11.7501ZM11.4401 26.03H11.6501V25.83H11.4401V26.03ZM10.9101 26.56C10.9101 26.2673 11.1473 26.03 11.4401 26.03V25.83C11.0369 25.83 10.7101 26.1569 10.7101 26.56H10.9101ZM11.4401 27.09C11.1473 27.09 10.9101 26.8527 10.9101 26.56H10.7101C10.7101 26.9632 11.0369 27.29 11.4401 27.29V27.09ZM12.2801 27.09H11.4401V27.29H12.2801V27.09ZM12.8101 26.56C12.8101 26.8527 12.5728 27.09 12.2801 27.09V27.29C12.6832 27.29 13.0101 26.9632 13.0101 26.56H12.8101ZM12.8101 17.32V26.56H13.0101V17.32H12.8101ZM12.2801 16.79C12.5728 16.79 12.8101 17.0273 12.8101 17.32H13.0101C13.0101 16.9169 12.6832 16.59 12.2801 16.59V16.79ZM11.4401 16.79H12.2801V16.59H11.4401V16.79ZM10.9101 17.32C10.9101 17.0273 11.1473 16.79 11.4401 16.79V16.59C11.0369 16.59 10.7101 16.9169 10.7101 17.32H10.9101ZM11.4401 17.85C11.1473 17.85 10.9101 17.6127 10.9101 17.32H10.7101C10.7101 17.7232 11.0369 18.05 11.4401 18.05V17.85Z" fill="#333333"/>
</g>
<g clip-path="url(#clip0)">
<line x1="8.05" y1="8" x2="8.05" y2="30" stroke="black" stroke-width="0.1" stroke-dasharray="0 1"/>
<line x1="30" y1="8.05" x2="8" y2="8.05" stroke="black" stroke-width="0.1" stroke-dasharray="0 1"/>
</g>
<rect x="8.05" y="8.05" width="21.9" height="21.9" stroke="#333333" stroke-width="0.1" stroke-linecap="square" stroke-dasharray="0 1"/>
<defs>
<clipPath id="clip0">
</clipPath>
</defs>
</svg>
